<?xml version="1.0" encoding="UTF-8"?><svg id="Layer_2" xmlns="http://www.w3.org/2000/svg" viewBox="0 0 1396.97 1396.97"><defs><style>.cls-1{fill:#0071bc;stroke:#fff;stroke-miterlimit:10;stroke-width:60px;}.cls-2{fill:#fff;stroke-width:0px;}</style></defs><g id="Layer_1-2"><circle class="cls-1" cx="698.48" cy="698.48" r="668.48"/><path class="cls-2" d="m720.54,272.25c6.08,1.64,12.23,3.06,18.22,4.96,46.54,14.83,77.37,62.91,70.14,109.24-8.2,52.56-49.54,89.36-100.64,89.57-50.21.21-93-36.26-100.89-85.99-8.71-54.9,28-106.46,82.64-116.11,1.73-.31,3.37-1.11,5.05-1.68,8.49,0,16.98,0,25.48,0Z"/><path class="cls-2" d="m836.08,1203.9c-16.6-.14-34.44-10.34-42.5-32.06-6.79-18.28-10.69-37.76-14.64-56.96-14.93-72.65-28.7-145.57-51.15-216.42-3.37-10.62-7.65-21.08-12.68-31.02-5.45-10.76-11.15-10.9-16.28-.16-5.84,12.23-11.52,24.89-14.68,37.99-15.04,62.36-29.37,124.9-43.58,187.46-4.89,21.54-7.54,43.64-13.26,64.93-10.72,39.88-43.22,56.12-80.76,41.76-23.75-9.08-36.49-30.54-31.99-55.57,17.85-99.24,36.76-198.31,53.69-297.71,8.33-48.91,14.65-98.29,19.08-147.7,3.19-35.61-4.31-43.38-38.62-54.09-51.71-16.15-103.62-31.68-155.05-48.68-15.31-5.06-30.55-12.37-43.63-21.72-31.37-22.4-25.52-76.64,9.13-93.95,10.69-5.34,21.56-4.8,32.7-1.44,75.5,22.76,152.25,39.71,230.34,50.89,64.54,9.24,128.68,6.91,192.84-3.32,70.68-11.27,140.15-27.66,208.86-47.53,21.92-6.34,39.22.46,51.53,19.77,20.6,32.31,13.18,65.34-20.9,82.94-20.3,10.49-42.39,17.69-64,25.45-41.58,14.93-83.59,28.69-125.05,43.92-37.55,13.8-41.99,19.41-38.25,61.72,8,90.66,26.71,179.67,43.33,268.99,9.91,53.29,20.04,106.54,29.84,159.85,6.63,36.05-18.13,62.8-64.31,62.64Z"/></g></svg>