<?xml version="1.0" encoding="UTF-8"?><svg id="Layer_2" xmlns="http://www.w3.org/2000/svg" viewBox="0 0 1130.09 307.01"><defs><style>.cls-1,.cls-2{stroke-width:0px;}.cls-2{fill:#fff;}</style></defs><g id="Layer_1-2"><path class="cls-2" d="m38.26,169.22c-1,0-2-.3-2.84-.89-1.23-.85-2.02-2.21-2.14-3.7-.51-6.13-1.35-10.85-3.59-20.2L11.28,67.59c-1.86-7.76-3.58-13.33-5.93-19.23-.55-1.39-.46-2.95.26-4.26s1.99-2.23,3.46-2.5c7.47-1.4,9.91-1.96,20.2-4.32l3.63-.83c14.21-3.22,28.61-6.38,42.82-9.41,4.91-1.09,10.15-1.67,15.09-1.67,21.05,0,35.49,10.09,38.62,27,1.85,10.02-.4,19.1-6.53,26.25-.64.73-1.27,1.4-1.91,2.03,2.22.62,4.34,1.46,6.56,2.57,9.18,4.72,15.14,13,17.28,23.96,2.42,12.36-1.24,23.56-10.58,32.39-7.4,7-18.09,12.16-30.11,14.53-13.95,2.96-28.11,6.06-42.02,9.21-11.88,2.72-16.29,3.95-22.51,5.72-.45.13-.91.19-1.37.19Zm29.99-41.99c8-1.79,16.06-3.54,24-5.21,9.07-1.92,10.04-6.88,9.26-10.71-.86-4.22-3.64-6.27-8.5-6.27-1.35,0-2.84.17-4.41.5-7.98,1.68-16.05,3.44-24.05,5.22l3.71,16.46Zm-10.98-48.77c7.74-1.73,15.57-3.43,23.35-5.08,3.33-.71,8.74-2.72,7.59-8.3-.46-2.24-1.58-4.52-6.38-4.52-1.25,0-2.65.16-4.16.48-7.69,1.63-15.47,3.32-23.17,5.04l2.78,12.37Z"/><path class="cls-1" d="m90.82,30.36c15.3,0,30.54,5.84,33.7,22.91,1.59,8.61-.26,16.08-5.41,22.09-3,3.38-5.6,5.36-11.72,8.81.08,0,.17,0,.25,0,7.98,0,12.43.9,17.68,3.52,7.9,4.06,12.79,11.14,14.61,20.44,4.56,23.36-16.6,37.08-36.74,41.06-14.07,2.98-28.12,6.06-42.15,9.24-11.76,2.7-16.21,3.91-22.78,5.79-.52-6.26-1.36-11.11-3.71-20.95-6.14-25.62-12.27-51.23-18.41-76.85-1.78-7.45-3.55-13.41-6.15-19.92,8.4-1.57,10.67-2.13,24.02-5.19,14.23-3.23,28.47-6.35,42.74-9.39,4.44-.98,9.25-1.56,14.05-1.56m-37.32,54.08c9.37-2.12,18.76-4.17,28.16-6.16,8.49-1.8,12.88-7.27,11.45-14.2-1.14-5.52-5.07-8.51-11.28-8.51-1.59,0-3.32.2-5.2.59-9.38,1.99-18.75,4.04-28.11,6.15,1.99,8.85,2.99,13.28,4.98,22.13m10.98,48.77c9.59-2.17,19.2-4.26,28.82-6.29,9.88-2.09,14.83-8.25,13.12-16.6-1.36-6.64-6.21-10.27-13.4-10.27-1.69,0-3.51.2-5.45.61-9.68,2.04-19.35,4.15-28.99,6.33,2.36,10.49,3.54,15.73,5.9,26.22m26.34-112.85c-5.36,0-10.8.6-16.17,1.79-14.23,3.03-28.65,6.19-42.83,9.41l-3.65.84c-10.21,2.34-12.63,2.9-20.01,4.28-2.94.55-5.48,2.39-6.92,5.01-1.44,2.62-1.64,5.75-.53,8.53,2.26,5.66,3.91,11.03,5.71,18.55l4.41,18.41,14,58.45c2.17,9.07,2.98,13.61,3.47,19.45.25,2.98,1.82,5.69,4.28,7.39,1.69,1.17,3.68,1.77,5.69,1.77.92,0,1.84-.13,2.74-.38,6.13-1.75,10.49-2.96,22.27-5.66,13.88-3.14,27.99-6.24,41.93-9.19,12.9-2.56,24.44-8.17,32.5-15.79,10.49-9.92,14.77-23.06,12.05-36.98-2.45-12.52-9.31-22-19.85-27.42-.04-.02-.07-.04-.11-.05-.17-.09-.35-.17-.52-.25,5.18-7.73,6.94-16.99,5.08-27.04-3.6-19.47-19.88-31.09-43.54-31.09h0Zm-30.35,49.53c6.08-1.34,12.18-2.66,18.23-3.94,1.18-.25,2.23-.38,3.13-.38.72,0,1.16.08,1.38.14.03.09.07.22.1.39.08.4.06.62.05.67-.1.2-1.07,1.16-3.78,1.73-6.15,1.3-12.34,2.64-18.52,4l-.59-2.62h0Zm10.06,44.68c6.37-1.41,12.76-2.79,19.1-4.12,1.24-.26,2.38-.4,3.38-.4,3.14,0,3.34,1,3.6,2.27.29,1.4.72,3.52-5.4,4.82-6.37,1.34-12.79,2.73-19.18,4.14l-1.51-6.7h0Z"/><path class="cls-2" d="m197.39,139.11c-27.53,0-49.21-17.26-53.96-42.96-2.56-13.84.29-26.99,8.23-38.04,9.01-12.53,23.94-21.11,40.95-23.53,3.36-.48,6.78-.72,10.16-.72,24.72,0,51.49,13.45,55.59,43.5,4.48,32.85-22.03,55.78-49.25,60.69-3.89.7-7.84,1.06-11.71,1.06Zm2.05-73.35c-.64,0-1.3.04-1.96.11-4.26.49-7.71,2.45-10.25,5.83-3.3,4.4-4.7,10.97-3.64,17.16,1.49,8.72,8.04,17.99,17.22,17.99,1,0,2.02-.11,3.06-.32,10.9-2.25,15.27-13.46,13.85-22.87-1.31-8.68-8.16-17.9-18.29-17.9Z"/><path class="cls-1" d="m202.77,38.87c24.03,0,47.07,13.02,50.64,39.17,3.9,28.61-18.51,50.28-45.19,55.09-3.64.66-7.27.98-10.83.98-23.68,0-44.49-14.23-49.05-38.86-5.4-29.21,16.52-51.66,44.97-55.71,3.14-.45,6.31-.67,9.46-.67m-1.95,72.98c1.31,0,2.67-.14,4.06-.42,13.15-2.71,19.68-16,17.79-28.51-1.78-11.81-11-22.15-23.23-22.15-.83,0-1.67.05-2.52.14-14.26,1.63-20.41,16.14-18.24,28.8,1.91,11.14,10.33,22.14,22.15,22.14m1.95-82.98h0c-3.62,0-7.27.26-10.86.77-18.36,2.61-34.51,11.93-44.31,25.56-8.76,12.18-11.9,26.66-9.09,41.87,5.2,28.14,28.87,47.05,58.88,47.05,4.18,0,8.41-.38,12.6-1.14,15.75-2.84,29.88-10.6,39.79-21.85,10.94-12.42,15.74-28.2,13.53-44.43-2.05-15.05-9.58-27.57-21.77-36.2-10.58-7.49-24.35-11.62-38.77-11.62h0Zm-1.95,72.98c-6.21,0-11.12-7.03-12.29-13.83-.84-4.87.2-9.97,2.71-13.31,1.71-2.27,3.93-3.54,6.81-3.86.47-.05.93-.08,1.39-.08,7.33,0,12.35,7.03,13.34,13.65,1.08,7.14-2.03,15.6-9.92,17.22-.7.14-1.39.22-2.05.22h0Z"/><path class="cls-2" d="m310.76,123.69c-12.63,0-23.83-3.2-32.4-9.25-11.52-8.14-19.2-21.46-21.07-36.55-1.73-14.03,2.01-27.64,10.54-38.32,9.23-11.57,23.63-19.12,39.51-20.73,2.32-.23,4.66-.35,6.97-.35,23.93,0,43.2,12.39,50.3,32.34,1.68,4.44,2.94,10.14,4.35,19.62.01.1.03.19.03.29.05.52.1,1.16.34,2.32.28,1.39-.04,2.84-.89,3.98-.85,1.14-2.14,1.86-3.55,1.99-3.21.29-6.43.59-9.65.9,3.23.51,6.46,1.02,9.66,1.54,1.48.24,2.78,1.14,3.53,2.44.75,1.3.87,2.87.34,4.28-3.18,8.31-5.53,12.37-10.06,17.36-11.56,12.27-27.59,16.35-39.01,17.63-3.01.34-6.01.51-8.93.51Zm-10.92-37.92c2.8,3.96,7.53,6.32,13.16,6.32h0c.87,0,1.76-.06,2.64-.17,5.33-.7,9.65-2.63,12.5-5.56,1.17-1.21,1.76-1.98,2.34-3.95-10.23,1.07-20.46,2.19-30.64,3.37Zm14.1-35.77c-1,0-2.07.06-3.16.18-6.62.74-10.3,2.93-12.41,5.6,8.39-.98,16.82-1.92,25.21-2.81-2.35-2.01-5.52-2.98-9.64-2.98Z"/><path class="cls-1" d="m314.3,23.49c19.65,0,38.56,9.18,45.61,29.06,1.71,4.49,2.89,10.47,4.1,18.63.05.58.13,1.44.42,2.86-23.97,2.2-47.9,4.7-71.8,7.53,2.25,9.97,10.83,15.51,20.36,15.51,1.09,0,2.19-.07,3.3-.22,6.18-.82,11.67-3.16,15.43-7.04,2.17-2.26,3.12-3.95,4.01-7.82,9.46,1.4,18.91,2.86,28.35,4.4-2.98,7.81-5.05,11.34-9.09,15.78-9.3,9.87-22.8,14.56-35.87,16.02-2.75.31-5.56.48-8.38.48-10.41,0-20.97-2.3-29.52-8.33-10.77-7.6-17.38-20.03-18.99-33.07-3.53-28.6,17.68-50.64,45.59-53.46,2.15-.22,4.31-.33,6.46-.33m-23.58,38.23c13.77-1.66,27.55-3.19,41.34-4.61-2.83-7.93-9.01-12.12-18.13-12.12-1.19,0-2.43.07-3.71.21-11.49,1.28-17.91,6.72-19.5,16.51m23.58-48.23h0c-2.47,0-4.99.13-7.47.38-17.21,1.74-32.85,9.97-42.91,22.59-9.37,11.74-13.49,26.68-11.59,42.05,2.04,16.48,10.47,31.07,23.14,40.02,9.42,6.65,21.62,10.16,35.29,10.16,3.1,0,6.3-.18,9.49-.54,12.26-1.37,29.5-5.8,42.03-19.1.04-.04.08-.09.12-.13,4.96-5.45,7.64-10.06,11.03-18.94,1.07-2.81.82-5.95-.68-8.56-.19-.34-.41-.66-.64-.97.11-.14.23-.28.33-.42,1.7-2.28,2.34-5.17,1.78-7.95-.18-.89-.22-1.34-.26-1.77-.02-.19-.04-.39-.07-.58-1.46-9.83-2.8-15.82-4.6-20.61-7.84-21.97-28.9-35.61-55-35.61h0Z"/><path class="cls-2" d="m380.21,113.79c-1.29,0-2.54-.5-3.48-1.41-1.03-1-1.59-2.39-1.52-3.83.34-7.21.22-12.17-.53-21.2l-3.68-44.34c-.83-10.06-1.53-14.93-2.98-20.85-.35-1.42-.06-2.93.8-4.11.86-1.19,2.19-1.94,3.65-2.06,10.83-.88,21.79-1.72,32.58-2.49.12,0,.24-.01.36-.01,1.2,0,2.36.43,3.28,1.22,1,.87,1.62,2.1,1.71,3.43l.04.5c7.29-5.37,16.69-8.48,27.39-8.93,1.85-.08,3.19-.11,4.49-.11,3.71,0,7.27.29,12.7,1.04,1.41.19,2.67.98,3.46,2.15.8,1.18,1.05,2.64.71,4.01-2.66,10.63-3.93,15.8-6.49,26.34-.55,2.28-2.6,3.82-4.85,3.82-.35,0-.7-.04-1.06-.11-6.04-1.31-9.55-1.79-12.94-1.79-.77,0-1.55.02-2.38.07-6.72.4-11.67,2.72-15.12,7.11-1.93,2.5-2.68,4.42-2.87,9.98l1.55,22.23c.63,8.99,1.3,14.25,2.67,20.86.29,1.41-.04,2.88-.91,4.03s-2.19,1.87-3.63,1.97c-10.77.77-21.71,1.6-32.53,2.48-.13.01-.27.02-.4.02Z"/><path class="cls-1" d="m442.31,14.59c3.27,0,6.55.24,12.02.99-2.64,10.54-3.94,15.82-6.5,26.37-6.18-1.33-10.04-1.9-13.99-1.9-.88,0-1.76.03-2.68.08-8.26.49-14.42,3.5-18.75,9.01-2.83,3.67-3.75,6.77-3.95,13.16.63,8.99.94,13.49,1.57,22.48.64,9.22,1.34,14.68,2.77,21.53-10.87.78-21.72,1.61-32.58,2.48.34-7.28.23-12.49-.54-21.85-1.23-14.78-2.45-29.56-3.68-44.34-.87-10.51-1.61-15.52-3.11-21.63,10.84-.88,21.68-1.71,32.53-2.49.32,4.55.48,6.83.79,11.39,7.45-10.21,19.66-14.65,31.83-15.17,1.53-.06,2.9-.11,4.28-.11m0-10c-1.37,0-2.78.03-4.7.12-9.43.4-17.96,2.7-25.15,6.69-.16-.16-.33-.32-.5-.47-1.82-1.58-4.15-2.45-6.55-2.45-.24,0-.48,0-.72.03-10.83.78-21.8,1.62-32.62,2.5-2.92.24-5.59,1.74-7.3,4.12-1.71,2.38-2.3,5.38-1.6,8.23,1.38,5.63,2.05,10.32,2.86,20.08l1.8,21.72,1.88,22.62c.73,8.78.85,13.58.52,20.55-.14,2.87.97,5.66,3.04,7.66,1.87,1.81,4.37,2.81,6.95,2.81.27,0,.54-.01.81-.03,10.77-.87,21.7-1.71,32.49-2.48,2.88-.21,5.52-1.64,7.26-3.94,1.74-2.3,2.4-5.24,1.81-8.06-1.32-6.36-1.97-11.46-2.58-20.19l-.93-13.39-.6-8.57c.18-4.67.78-5.48,1.82-6.83,1.74-2.2,4.62-4.77,11.46-5.18.74-.04,1.42-.06,2.09-.06,3.04,0,6.15.44,11.88,1.68.71.15,1.42.23,2.12.23,4.52,0,8.6-3.08,9.71-7.64,2.57-10.57,3.84-15.73,6.49-26.3.69-2.76.17-5.67-1.42-8.03-1.59-2.35-4.11-3.92-6.92-4.3-5.68-.78-9.43-1.08-13.38-1.08h0Z"/><path class="cls-2" d="m513.03,110.05c-10.83,0-26.26-2.13-38.28-12.3-10.76-9.1-17.25-23.04-17.8-38.22-.52-14.14,4.39-27.38,13.81-37.3,10.18-10.71,25.14-16.98,41.06-17.21.33,0,.67,0,1,0,26.51,0,47.4,14.45,53.23,36.81,1.29,4.57,2.06,10.35,2.64,19.92,0,.1,0,.19,0,.29,0,.52,0,1.17.14,2.34.16,1.41-.29,2.82-1.23,3.88-.94,1.06-2.29,1.67-3.71,1.68-3.22.02-6.45.04-9.68.07,3.17.79,6.33,1.58,9.48,2.37,1.46.37,2.67,1.37,3.31,2.73.64,1.36.62,2.94-.03,4.29-3.88,8.01-6.57,11.85-11.51,16.43-12.56,11.22-28.86,13.91-40.34,14.2-.69.02-1.39.03-2.09.03Zm-14.46-39.01c2.97,5.14,8.81,7.5,14.29,7.5.31,0,.61,0,.92-.02,5.36-.24,9.82-1.78,12.91-4.46,1.27-1.11,1.92-1.82,2.67-3.73-10.28.18-20.56.42-30.79.71Zm14.75-34.52c-.26,0-.51,0-.78,0-6.64.16-10.5,2.03-12.82,4.51,8.4-.25,16.85-.46,25.26-.62-2.6-2.61-6.46-3.9-11.66-3.9Z"/><path class="cls-1" d="m512.82,10c21.61,0,42.61,10.81,48.41,33.12,1.31,4.62,1.97,10.68,2.48,18.92,0,.58,0,1.44.17,2.89-24.04.12-48.06.55-72.09,1.3,1.48,10.88,10.67,17.3,21.07,17.3.38,0,.76,0,1.14-.03,6.22-.28,11.88-2.14,15.96-5.68,2.36-2.06,3.45-3.67,4.67-7.44,9.29,2.21,18.58,4.48,27.84,6.82-3.64,7.52-6,10.86-10.4,14.94-10.1,9.02-23.94,12.54-37.07,12.87-.65.02-1.31.02-1.97.02-12.4,0-25.42-2.98-35.05-11.12-10.06-8.51-15.56-21.47-16.03-34.59-1.05-28.76,21.91-48.92,49.95-49.33.31,0,.62,0,.93,0m-21.23,36.29c13.84-.46,27.68-.8,41.52-1.02-2.34-8.96-9.11-13.76-19.81-13.76-.3,0-.6,0-.9.01-11.54.28-18.39,5.14-20.82,14.77M512.82,0v10V0h0c-.36,0-.72,0-1.08,0-17.25.25-33.51,7.09-44.61,18.76-10.36,10.9-15.75,25.43-15.19,40.93.6,16.59,7.74,31.85,19.57,41.86,13.18,11.15,29.85,13.49,41.51,13.49.74,0,1.48,0,2.22-.03,12.32-.31,29.86-3.23,43.48-15.41.04-.04.09-.08.13-.12,5.4-5.01,8.47-9.36,12.61-17.91,1.31-2.71,1.33-5.86.06-8.58-.17-.35-.35-.7-.55-1.02.13-.13.25-.26.37-.39,1.89-2.12,2.78-4.95,2.46-7.77-.1-.9-.1-1.35-.1-1.79,0-.19,0-.39-.02-.58-.61-9.92-1.42-16-2.81-20.93-6.45-24.61-29.22-40.5-58.06-40.5h0Z"/><path class="cls-2" d="m675.7,108.37c-10.84-.48-21.86-.92-32.74-1.29-1.44-.05-2.79-.72-3.7-1.84-.91-1.12-1.3-2.57-1.05-4,1.1-6.49,1.62-12.21,1.91-21.09l.97-29.6c.17-5.3-.38-6.45-1.24-7.6-1.01-1.34-3.55-2.22-6.8-2.36-.17,0-.33-.01-.5-.01-6.85,0-14.9,5.58-18.74,11.15l-.47,27.76c-.14,8.34.09,14.08.87,21.21.15,1.42-.31,2.85-1.28,3.91-.95,1.04-2.29,1.63-3.7,1.63-.02,0-.05,0-.07,0-10.82-.16-21.79-.27-32.6-.33-1.44,0-2.81-.64-3.76-1.73-.94-1.09-1.37-2.54-1.16-3.97.91-6.37,1.26-12.1,1.29-21.12l.16-44.5c.04-10-.28-15.68-1.16-20.98-.24-1.45.17-2.94,1.12-4.07.95-1.12,2.34-1.76,3.81-1.76h.03c10.85.06,21.83.17,32.65.32,1.33.02,2.59.57,3.52,1.52s1.43,2.24,1.41,3.56v.39c8.23-4.46,17.87-6.84,28-6.84h.71c9.42.11,22.19,3.38,29.48,10.47,7.39,7.18,10.29,15.7,9.7,28.47l-1.67,36.22c-.36,7.69-.27,14.78.25,21.06.12,1.43-.38,2.84-1.38,3.88-.94.98-2.25,1.53-3.6,1.53-.07,0-.15,0-.22,0Z"/><path class="cls-1" d="m642.45,11.74c.22,0,.43,0,.65,0,8.13.09,19.82,3,26.05,9.05,6.22,6.05,8.72,13.26,8.19,24.66-.56,12.07-1.12,24.15-1.67,36.22-.39,8.37-.24,15.61.26,21.71-10.93-.48-21.86-.92-32.79-1.3,1.17-6.9,1.69-12.95,1.98-21.76.32-9.87.65-19.73.97-29.6.19-5.78-.37-8.28-2.24-10.77-2-2.66-5.79-4.15-10.58-4.36-.24-.01-.48-.02-.72-.02-9.03,0-19.29,7.2-23.72,14.65-.16,9.73-.33,19.45-.49,29.18-.14,8.23.08,14.31.89,21.83-10.88-.16-21.76-.27-32.65-.33.97-6.79,1.31-12.85,1.34-21.81.05-14.83.11-29.66.16-44.5.04-9.97-.27-16.04-1.23-21.82,10.87.06,21.73.17,32.6.32-.04,2.43-.06,3.64-.1,6.07-.01.87-.21,3.03-.23,4.04,9.38-7.9,21.51-11.47,33.33-11.47m0-10c-8.94,0-17.55,1.73-25.28,5-.17-.2-.35-.4-.53-.59-1.85-1.91-4.38-3-7.04-3.04-10.85-.16-21.85-.27-32.69-.33-.02,0-.04,0-.05,0-2.93,0-5.71,1.28-7.61,3.52-1.91,2.25-2.74,5.22-2.25,8.13.83,4.99,1.13,10.45,1.1,20.14l-.08,22.24-.08,22.26c-.03,8.77-.37,14.31-1.24,20.44-.41,2.86.44,5.76,2.33,7.94,1.89,2.19,4.63,3.45,7.52,3.47,10.8.06,21.76.17,32.56.33.05,0,.1,0,.15,0,2.81,0,5.5-1.18,7.39-3.27,1.93-2.12,2.86-4.96,2.55-7.81-.75-6.9-.97-12.48-.84-20.59l.44-26.15c3.48-4.25,9.59-7.85,13.77-7.85.09,0,.19,0,.28,0,1.69.07,2.69.38,3.12.58.08.35.23,1.41.14,4.23l-.48,14.74-.49,14.86c-.28,8.64-.78,14.17-1.84,20.42-.48,2.84.29,5.76,2.11,7.99,1.82,2.24,4.52,3.57,7.4,3.67,10.84.38,21.85.81,32.7,1.29.15,0,.3,0,.44,0,2.71,0,5.32-1.1,7.21-3.07,1.99-2.07,3-4.9,2.76-7.76-.5-6.07-.58-12.94-.24-20.42l.83-17.98.84-18.25c.65-14.16-2.8-24.11-11.21-32.29-8.27-8.05-22.49-11.76-32.91-11.88-.26,0-.51,0-.76,0h0Z"/><path class="cls-2" d="m724.92,111.2c-.11,0-.22,0-.33-.01-10.76-.71-21.71-1.38-32.56-1.99-1.43-.08-2.77-.78-3.65-1.91-.89-1.13-1.24-2.59-.98-4,1.32-7.11,1.88-12.03,2.37-21.07l2.42-44.43c.55-10.08.52-15-.1-21.07-.15-1.46.34-2.91,1.36-3.97.95-.99,2.25-1.55,3.62-1.55.09,0,.19,0,.28,0,10.8.61,21.77,1.28,32.6,1.98,1.33.09,2.56.7,3.44,1.7.88,1,1.32,2.31,1.23,3.63l-.03.49c6.49-3.53,14.16-5.36,22.69-5.36,1.86,0,3.77.09,5.67.27,5.62.54,9.21,1.11,16.91,3.27,1.37.38,2.51,1.33,3.13,2.61.63,1.27.68,2.76.15,4.07-4.09,10.17-6.06,15.11-10.04,25.2-.77,1.96-2.66,3.17-4.65,3.17-.57,0-1.15-.1-1.71-.3-7.03-2.56-10.52-3.45-14.95-3.8-.82-.06-1.63-.1-2.41-.1-5.57,0-10,1.66-13.54,5.07-2.26,2.21-3.26,4.01-4.21,9.49l-1.51,22.23c-.61,8.98-.66,14.29-.21,21.03.1,1.44-.43,2.85-1.45,3.87-.94.94-2.21,1.47-3.54,1.47Z"/><path class="cls-1" d="m697.06,16.21c10.86.61,21.71,1.27,32.56,1.98-.31,4.55-.46,6.83-.77,11.39,7.53-7.8,17.95-10.92,28.41-10.92,1.74,0,3.47.09,5.2.25,5.16.49,8.48.99,16.03,3.11-4.06,10.08-6.07,15.13-10.05,25.23-7.26-2.65-11.25-3.69-16.27-4.08-.96-.07-1.89-.11-2.8-.11-6.94,0-12.55,2.17-17.01,6.47-3.31,3.24-4.64,6.2-5.71,12.49-.61,8.99-.91,13.49-1.52,22.49-.63,9.22-.68,14.72-.21,21.71-10.87-.72-21.73-1.38-32.6-1.99,1.33-7.16,1.94-12.34,2.45-21.71.81-14.81,1.61-29.62,2.42-44.43.57-10.53.53-15.6-.12-21.85m0-10c-2.72,0-5.34,1.11-7.23,3.1-2.02,2.12-3.01,5.02-2.71,7.93.6,5.77.62,10.51.08,20.28l-2.42,44.43c-.48,8.79-1.02,13.57-2.29,20.43-.53,2.83.19,5.74,1.96,8,1.77,2.26,4.44,3.65,7.31,3.81,10.79.61,21.73,1.28,32.51,1.99.22.01.44.02.66.02,2.65,0,5.19-1.05,7.08-2.93,2.04-2.04,3.09-4.86,2.9-7.74-.44-6.49-.39-11.62.21-20.36l1.49-21.96c.82-4.6,1.52-5.32,2.74-6.52,2.59-2.49,5.78-3.64,10.04-3.64.65,0,1.33.03,2.02.08,3.91.31,7.09,1.13,13.62,3.51,1.13.41,2.29.61,3.43.61,3.99,0,7.75-2.41,9.3-6.33,3.99-10.11,5.96-15.05,10.03-25.17,1.06-2.64.95-5.6-.31-8.15-1.25-2.55-3.53-4.44-6.27-5.21-8.02-2.25-11.97-2.88-17.79-3.43-2.06-.2-4.12-.3-6.14-.3-7.14,0-13.76,1.18-19.69,3.47-.14-.18-.28-.35-.43-.52-1.75-2-4.22-3.22-6.87-3.39-10.83-.71-21.82-1.38-32.65-1.99-.19-.01-.38-.02-.56-.02h0Z"/><path class="cls-2" d="m833.39,124.16c-2.16,0-4.34-.1-6.49-.31-32.26-3.07-54.53-28.03-51.81-58.06,2.49-27.45,25.05-46.62,54.86-46.62,2.97,0,6,.2,8.99.6,17.58,2.34,33.09,10.81,42.55,23.24,7.81,10.26,10.98,22.6,9.17,35.69-3.71,26.76-27.26,45.46-57.28,45.46Zm-.77-73.15c-9.76,0-16.02,9.59-16.96,18.6-.67,6.45,1.15,13.11,4.74,17.39,2.6,3.09,5.95,4.8,9.97,5.08.42.03.83.04,1.23.04,10.38,0,17.15-9.44,18.25-18.33,1.21-9.75-3.95-20.86-14.67-22.59-.87-.14-1.73-.21-2.57-.21Z"/><path class="cls-1" d="m829.95,24.18c2.75,0,5.53.18,8.33.55,27.14,3.61,51.52,23.73,47.43,53.29-3.67,26.46-27.42,41.14-52.32,41.14-2,0-4.01-.09-6.01-.29-28.19-2.68-49.9-23.97-47.3-52.63,2.42-26.63,24.66-42.07,49.88-42.07m1.65,72.95c12.57,0,21.72-10.66,23.21-22.71,1.57-12.64-5.44-25.98-18.83-28.14-1.15-.19-2.28-.27-3.37-.27-12.34,0-20.71,11.37-21.93,23.09-1.3,12.47,5.16,26.99,19.33,27.98.53.04,1.06.06,1.58.06m-1.65-82.95h0c-14.92,0-29.03,4.7-39.73,13.23-11.76,9.37-18.71,22.49-20.11,37.94-2.98,32.85,21.23,60.15,56.31,63.49,2.3.22,4.65.33,6.96.33,14.76,0,28.98-4.47,40.04-12.59,12.41-9.1,20.08-21.96,22.19-37.18,2-14.43-1.51-28.06-10.14-39.4-10.26-13.49-26.98-22.66-45.87-25.17-3.21-.43-6.45-.64-9.64-.64h0Zm1.65,72.95c-.29,0-.59-.01-.88-.03-2.65-.19-4.77-1.27-6.49-3.31-2.71-3.23-4.12-8.59-3.6-13.66.72-6.94,5.4-14.12,11.98-14.12.57,0,1.17.05,1.78.15,6.08.98,11.67,7.62,10.5,17.04-.84,6.76-5.78,13.94-13.29,13.94h0Z"/><path class="cls-2" d="m950.62,140.29c-4.25,0-8.67-.35-13.15-1.05-15.84-2.46-29.21-9.47-37.65-19.73-8.83-10.74-12.58-25.58-10.31-40.72,3.96-26.38,25.44-44.1,53.44-44.1,3.71,0,7.47.33,11.2.97,20.01,3.47,44.14,16.69,46.32,42.53.12,1.4-.36,2.78-1.31,3.81-.95,1.03-2.28,1.61-3.68,1.61h-.02c-2.27,0-4.55-.01-6.82-.01-7.56,0-15.24.04-22.83.13h-.06c-2.46,0-4.56-1.79-4.94-4.23-.67-4.29-1.14-5.54-2.22-7.09-1.9-2.73-5.04-4.47-9.34-5.15-.95-.15-1.89-.23-2.79-.23-9.93,0-14.88,9.46-16.11,17.56-2.12,13.99,4.81,21.65,12.62,23.04,1.04.18,2.1.28,3.15.28,3.5,0,6.66-1.03,8.66-2.83,1.1-1.02,1.7-1.65,2.63-4.11.75-1.99,2.65-3.23,4.67-3.23.51,0,1.02.08,1.53.24,9.42,3.03,18.97,6.17,28.38,9.35,1.37.46,2.47,1.49,3.02,2.82.55,1.33.5,2.84-.14,4.13-3.02,6.1-5.88,10.09-10.21,14.24-7.88,7.69-19.68,11.78-34.09,11.78Z"/><path class="cls-1" d="m942.95,39.69c3.4,0,6.86.3,10.35.9,19.92,3.45,40.32,15.8,42.2,38.02-2.25,0-4.5-.01-6.74-.01-7.66,0-15.32.04-22.98.13-.7-4.52-1.32-6.68-3.04-9.17-2.65-3.82-6.9-6.33-12.66-7.25-1.23-.2-2.43-.29-3.57-.29-11.91,0-19.27,10.09-21.05,21.81-1.92,12.66,2.99,26.28,16.69,28.71,1.35.24,2.7.36,4.02.36,4.64,0,9.02-1.43,12-4.11,1.74-1.61,2.77-2.9,3.97-6.06,9.46,3.04,18.9,6.15,28.31,9.33-2.87,5.79-5.46,9.27-9.19,12.85-7.98,7.79-19.48,10.39-30.63,10.39-4.25,0-8.45-.38-12.38-.99-13.03-2.02-26.06-7.63-34.55-17.96-8.36-10.18-11.16-23.95-9.23-36.8,3.8-25.32,24.69-39.84,48.5-39.84m0-10c-14.12,0-27.59,4.46-37.92,12.55-11.19,8.77-18.27,21.15-20.47,35.81-2.48,16.54,1.67,32.81,11.39,44.64,9.22,11.22,23.69,18.85,40.75,21.5,4.73.73,9.41,1.11,13.92,1.11,15.72,0,28.72-4.56,37.58-13.2,4.7-4.51,7.95-9.04,11.2-15.6,1.28-2.59,1.38-5.6.28-8.27-1.1-2.67-3.31-4.73-6.04-5.65-9.42-3.18-18.99-6.33-28.45-9.37-1.02-.33-2.05-.48-3.06-.48-4.05,0-7.84,2.48-9.35,6.46-.54,1.42-.63,1.54-1.34,2.19-.85.74-2.67,1.52-5.28,1.52-.75,0-1.52-.07-2.28-.2-4.05-.72-10.4-5.18-8.55-17.37,1.92-12.67,9.64-13.31,11.16-13.31.64,0,1.31.06,2.01.17,4.37.69,5.61,2.48,6.02,3.07.46.67.78,1.12,1.38,5.01.76,4.88,4.96,8.46,9.88,8.46.04,0,.07,0,.11,0,7.58-.08,15.28-.13,22.87-.13,2.24,0,4.47,0,6.71.01.01,0,.02,0,.03,0,2.79,0,5.46-1.17,7.35-3.22,1.9-2.06,2.85-4.83,2.61-7.62-1.1-12.98-7.33-24.39-18.03-33-8.59-6.91-20.11-11.9-32.43-14.03-4.01-.69-8.06-1.05-12.05-1.05h0Z"/><path class="cls-2" d="m1101.12,168.8c-.39,0-.78-.04-1.17-.14-13.03-3.13-26.27-6.18-39.36-9.08-2.01-.44-3.54-2.07-3.86-4.1-.93-5.94-2.85-12.52-5.84-20.1-2.47-6.12-3.98-9.86-6.03-14.83-2.31,1.28-4.36,2.42-7,3.89l-.7,3.42c-2.4,11.66-2.83,14.64-2.9,19.98-.02,1.49-.7,2.89-1.86,3.83-.9.72-2,1.11-3.14,1.11-.33,0-.67-.03-1-.1-10.45-2.13-21.11-4.25-31.67-6.29-1.42-.28-2.66-1.16-3.38-2.41s-.87-2.77-.39-4.14c2.04-5.88,3.4-11.24,5.17-20.49l14.43-75.2c1.66-8.65,2.52-15.29,2.71-20.9.05-1.46.74-2.83,1.88-3.74.89-.71,1.99-1.09,3.12-1.09.32,0,.64.03.95.09,11.04,2.14,22.24,4.37,33.27,6.61,1.44.29,2.69,1.21,3.39,2.5s.81,2.83.27,4.21c-1.97,5.07-3.5,10.76-5.46,20.29l-5.95,28.95c3.39-1.92,6.68-3.76,11.24-6.3,8.24-4.64,12.49-7.43,16.22-10.65.92-.79,2.08-1.22,3.27-1.22.36,0,.73.04,1.09.12,14.25,3.17,28.66,6.48,42.81,9.83,2.09.49,3.63,2.27,3.83,4.4.2,2.14-.99,4.16-2.95,5.03-7.48,3.32-9.62,4.33-19.74,9.67-7.82,4.04-15.65,8.15-23.35,12.26,5.55,11.95,11.08,24.08,16.49,36.11l2.22,4.9c4.51,9.96,5.09,11.25,7.78,16.16.95,1.74.79,3.87-.42,5.44-.96,1.25-2.44,1.96-3.97,1.96Z"/><path class="cls-1" d="m1020.14,23.41c11.09,2.15,22.16,4.35,33.22,6.6-2.18,5.6-3.75,11.62-5.7,21.1-2.72,13.26-5.45,26.51-8.17,39.77,8.27-4.73,12.43-7.08,20.79-11.73,8.75-4.93,13.1-7.82,17.06-11.23,14.27,3.17,28.52,6.44,42.75,9.81-7.4,3.28-9.7,4.36-20.05,9.82-9.22,4.76-18.4,9.6-27.54,14.51,6.24,13.41,12.39,26.85,18.45,40.34,6.62,14.6,6.99,15.6,10.17,21.41-13.12-3.15-26.27-6.18-39.44-9.1-1.01-6.44-3.07-13.4-6.13-21.16-3.24-8.03-4.88-12.05-8.19-20.07-5.59,3.07-8.38,4.62-13.93,7.72-.47,2.26-.7,3.4-1.16,5.66-2.39,11.6-2.92,15.03-3,20.92-10.56-2.15-21.13-4.25-31.71-6.3,2.16-6.21,3.56-11.82,5.36-21.19,4.81-25.07,9.62-50.13,14.43-75.2,1.85-9.65,2.62-16.27,2.8-21.68m0-10c-2.24,0-4.44.76-6.23,2.18-2.29,1.82-3.66,4.56-3.76,7.48-.18,5.35-1.02,11.75-2.63,20.13l-2.01,10.49-12.42,64.71c-1.72,8.98-3.03,14.16-4.98,19.79-.95,2.74-.67,5.76.78,8.27,1.45,2.51,3.91,4.27,6.76,4.83,10.5,2.04,21.14,4.15,31.62,6.28.66.13,1.33.2,1.99.2,2.26,0,4.48-.77,6.27-2.21,2.32-1.87,3.68-4.67,3.72-7.65.07-4.98.46-7.65,2.8-19.04l.24-1.18s.05-.03.07-.04c1.17,2.86,2.34,5.76,3.88,9.59,2.85,7.23,4.67,13.44,5.54,19.01.64,4.06,3.7,7.32,7.72,8.21,13.06,2.89,26.27,5.94,39.27,9.06.78.19,1.56.28,2.33.28,3.07,0,6.02-1.42,7.94-3.92,2.4-3.14,2.73-7.4.83-10.87-2.6-4.75-3.07-5.79-7.6-15.81l-2.24-4.94c-4.74-10.56-9.61-21.23-14.51-31.84,6.34-3.37,12.73-6.71,19.08-9.99.03-.01.05-.03.08-.04,10.38-5.48,12.43-6.42,19.44-9.53,3.92-1.74,6.3-5.79,5.91-10.06-.4-4.27-3.48-7.82-7.65-8.81-14.21-3.36-28.63-6.67-42.88-9.84-.72-.16-1.45-.24-2.17-.24-2.38,0-4.7.85-6.54,2.43-3.45,2.98-7.48,5.62-15.42,10.09-.58.32-1.13.63-1.67.93l3.75-18.23c1.9-9.23,3.36-14.7,5.22-19.49,1.07-2.75.87-5.83-.54-8.41-1.41-2.59-3.89-4.42-6.78-5.01-11.05-2.25-22.26-4.48-33.31-6.62-.63-.12-1.27-.18-1.9-.18h0Z"/><path class="cls-2" d="m266.39,301.24c-1.17,0-2.32-.41-3.23-1.18-1.09-.93-1.74-2.28-1.77-3.71-.15-7-.62-12.14-1.93-21.15l-5.61-38.65c-6.1.92-10.33,1.84-14.88,3.22-.47.14-.96.21-1.45.21-.93,0-1.86-.26-2.66-.77-1.23-.77-2.06-2.04-2.28-3.47l-3.72-23.98c-.22-1.43.18-2.88,1.11-3.98.93-1.1,2.29-1.75,3.73-1.78,3.99-.08,10.25-.63,15.51-1.37l-.25-1.71c-1.52-8.82.12-16.52,4.86-22.88,6.16-8.26,17.5-13.75,31.94-15.45,4.47-.53,8.29-.77,12-.77,4.07,0,8.17.3,12.92.93,2.68.36,4.59,2.79,4.31,5.48-.91,8.65-1.35,12.98-2.22,21.63-.16,1.54-1.02,2.93-2.34,3.75-.25.16-.51.29-.78.4.49.15.96.38,1.39.69,1.16.82,1.91,2.08,2.08,3.49l2.89,24.1c.17,1.42-.27,2.83-1.21,3.9-.94,1.07-2.3,1.68-3.72,1.69-6.38.04-11.15.38-18.74,1.35l5.09,38.72c1.23,9.36,2.07,13.85,3.89,20.87.36,1.39.11,2.86-.7,4.05-.8,1.19-2.08,1.98-3.5,2.16-10,1.3-20.1,2.7-30.02,4.15-.24.04-.48.05-.72.05Zm30.53-106.92c-1.26,0-2.56.09-3.97.26-3.17.4-4.07,1.17-4.31,1.47-.2.26-.59,1.05-.47,3.18,5.55-.74,12.71-2,18-3.15-.05-.02-.09-.03-.14-.05-3.12-1.17-6.02-1.72-9.12-1.72Z"/><path class="cls-1" d="m297.77,168.83c3.89,0,7.78.29,12.25.89-.91,8.66-1.35,12.99-2.22,21.65-3.61-1.35-7.06-2.04-10.88-2.04-1.47,0-2.99.1-4.59.3-7.44.94-9.95,4.2-8.97,11.65.19,1.43.28,2.15.47,3.58,1.75-.23,2.62-.34,4.37-.57,6.34-.82,14.43-2.26,19.95-3.51,1.16,9.64,1.74,14.46,2.89,24.1-6.36.04-11.33.36-19.69,1.44-1.85.24-2.78.36-4.63.6,1.92,14.56,3.83,29.12,5.75,43.69,1.3,9.88,2.21,14.57,4,21.48-10.04,1.31-20.08,2.7-30.09,4.16-.15-7.13-.63-12.46-1.98-21.76-2.11-14.54-4.22-29.07-6.33-43.61-1.61.23-2.42.35-4.03.59-7.01,1.03-11.58,2.02-16.53,3.52-1.49-9.59-2.23-14.39-3.72-23.98,4.3-.08,11.29-.71,17.02-1.55,1.63-.24,2.44-.36,4.07-.59-.39-2.69-.59-4.03-.98-6.72-3.68-21.13,14.32-30.44,32.45-32.58,4.12-.49,7.76-.74,11.41-.74m0-10c-3.91,0-7.91.26-12.58.81-15.82,1.86-28.38,8.05-35.36,17.43-4.87,6.53-7,14.51-6.23,23.23-3.7.39-7.4.67-9.98.72-2.89.06-5.61,1.36-7.46,3.56-1.86,2.21-2.67,5.11-2.23,7.97l2.38,15.37,1.34,8.61c.44,2.86,2.11,5.39,4.56,6.93,1.61,1.01,3.46,1.54,5.33,1.54.97,0,1.95-.14,2.9-.43,3.02-.91,5.82-1.6,9.22-2.23l4.46,30.74.41,2.85c1.27,8.78,1.73,13.77,1.88,20.54.06,2.87,1.35,5.57,3.54,7.42,1.82,1.54,4.11,2.36,6.46,2.36.48,0,.97-.03,1.45-.11,9.92-1.45,19.99-2.85,29.94-4.14,2.84-.37,5.39-1.94,7-4.32,1.6-2.38,2.11-5.33,1.39-8.1-1.58-6.1-2.45-10.26-3.77-20.27l-4.43-33.7c4.74-.5,8.5-.7,13.15-.72,2.85-.02,5.56-1.25,7.44-3.39,1.89-2.14,2.77-4.98,2.43-7.81l-1.06-8.86-1.83-15.24c-.17-1.37-.61-2.68-1.29-3.85.51-1.05.84-2.18.95-3.37.87-8.67,1.31-12.91,2.22-21.61.56-5.38-3.26-10.24-8.62-10.95-4.97-.66-9.28-.97-13.58-.97h0Z"/><path class="cls-2" d="m370.16,291.95c-12.67,0-23.77-3.53-32.1-10.2-10.55-8.46-17.52-21.91-19.13-36.9-1.56-14.59,2.51-28.59,11.48-39.43,8.81-10.65,21.53-17.15,35.8-18.31,1.63-.13,3.28-.2,4.9-.2,22.91,0,41.82,13.19,48.19,33.61,1.5,4.46,2.6,10.16,3.78,19.64.01.09.02.18.03.27.04.53.08,1.19.29,2.36.24,1.39-.11,2.82-.98,3.94-.87,1.11-2.17,1.81-3.58,1.91-2.94.22-5.88.44-8.83.67,2.67.53,5.54,1.1,8.99,1.79,1.43.29,2.67,1.19,3.38,2.46.71,1.28.83,2.8.33,4.17-3.03,8.23-5.25,12.23-9.5,17.11-8.48,9.45-21.47,15.41-36.62,16.83-2.15.2-4.32.3-6.44.3Zm-11.23-38.21c2.58,4.14,7.07,6.68,12.32,6.68.63,0,1.27-.04,1.91-.11,4.75-.54,8.64-2.29,11.24-5.09,1.08-1.17,1.66-1.95,2.23-4.02-9.25.8-18.5,1.64-27.7,2.53Zm12.42-35.35c-.73,0-1.49.04-2.28.11-5.43.5-9.06,2.15-11.29,5.26,7.6-.75,15.24-1.46,22.83-2.12-2.22-2.19-5.26-3.24-9.26-3.24Z"/><path class="cls-1" d="m371.11,191.9c19.49,0,37.3,10.42,43.43,30.15,1.53,4.53,2.55,10.54,3.58,18.72.04.58.1,1.44.35,2.87-22.2,1.64-44.36,3.55-66.51,5.76,1.86,9.75,9.78,16.02,19.27,16.02.81,0,1.63-.05,2.47-.14,5.73-.64,10.82-2.86,14.34-6.65,2.03-2.2,2.93-3.87,3.79-7.72,10.5,1.96,15.73,2.98,26.17,5.07-2.85,7.74-4.8,11.21-8.58,15.55-8.48,9.45-21.04,13.98-33.31,15.13-1.97.18-3.97.28-5.98.28-10.33,0-20.84-2.58-28.97-9.11-10.13-8.12-15.91-20.67-17.29-33.53-2.89-26.91,15.56-50.02,42.72-52.23,1.5-.12,3.01-.18,4.5-.18m-20.72,37.62c12.76-1.3,25.54-2.49,38.32-3.57-2.6-8.22-8.53-12.57-17.37-12.57-.88,0-1.8.04-2.74.13-10.66.99-16.65,6.26-18.22,16m20.72-47.62v10-10h0c-1.76,0-3.54.07-5.31.22-15.63,1.27-29.57,8.41-39.25,20.11-9.84,11.89-14.31,27.21-12.61,43.15,1.75,16.31,9.39,30.99,20.98,40.27,9.23,7.39,21.41,11.3,35.23,11.3,2.28,0,4.6-.11,6.91-.33,16.4-1.54,30.54-8.07,39.82-18.41.03-.04.07-.08.1-.11,4.65-5.35,7.19-9.88,10.42-18.66,1.01-2.74.77-5.79-.66-8.34-.19-.35-.41-.68-.64-1,.09-.1.17-.21.26-.31,1.74-2.23,2.45-5.09,1.96-7.87-.16-.93-.2-1.4-.23-1.86-.01-.18-.03-.36-.05-.54-1.23-9.8-2.39-15.77-3.99-20.56-3.62-11.57-10.78-21.16-20.7-27.73-9.22-6.11-20.38-9.34-32.25-9.34h0Z"/><path class="cls-2" d="m469.2,284.19c-16.58,0-30.26-5-38.52-14.07-.05-.06-.1-.12-.15-.18-3.73-4.5-5.69-8.5-7.77-15.85-.39-1.36-.18-2.82.57-4.02s1.97-2.02,3.36-2.27c7.75-1.38,15.58-2.72,23.37-4-.81-.2-1.58-.4-2.34-.62-8.36-2.36-14.47-6.14-18.16-11.22-3.11-4.29-5.14-10.14-5.55-16.04-.56-7.97,1.76-14.95,6.9-20.74,11.14-12.54,30.93-14.42,36.73-14.7,1.5-.07,2.98-.11,4.42-.11,13.21,0,23.83,3.08,31.57,9.15,5.85,4.59,8.97,9.45,11.95,18.55.46,1.41.27,2.96-.52,4.22-.79,1.26-2.1,2.1-3.58,2.29-7.38.97-14.83,1.99-22.24,3.05,5.68,1.2,8.94,2.28,12.52,3.91,10.9,4.45,17.76,14.48,17.9,26.21.11,9.21-2.87,17.37-8.4,22.98-8.15,8.04-20.38,12.38-37.45,13.32-1.54.08-3.09.13-4.61.13Zm-7.98-38.23c.08.2.14.4.2.61,1,3.98,3,6.28,10.21,6.28.51,0,1.04-.01,1.59-.04,6.43-.29,8.54-1.83,8.77-2.23,0,0,0-.03,0-.09,0-.12-.02-.45-.71-.8-1.43-.72-2.87-1.16-10.73-2.31-3.53-.52-6.6-.98-9.32-1.42Zm.93-33.74c2.8,1.19,10.55,2.47,13.69,2.99.49.08.98.16,1.45.24-.12-.31-.21-.64-.27-.99-.33-1.97-.64-3.83-6.5-3.83-.43,0-.87.01-1.32.03-3.91.18-6.07,1-7.04,1.56Z"/><path class="cls-1" d="m472.05,185.36c9.93,0,20.51,1.82,28.48,8.08,5.13,4.03,7.66,8.15,10.28,16.17-9.63,1.27-19.25,2.6-28.86,4.01-.92-5.5-4.36-8-11.44-8-.5,0-1.02.01-1.55.04-7.83.36-12.51,3.08-12.32,6.83.2,3.9,3.49,5.19,18.38,7.65,14.72,2.43,19.45,3.57,24.75,6,9.06,3.65,14.76,11.98,14.88,21.68.09,7.55-2.27,14.65-6.96,19.41-8.86,8.74-22.47,11.19-34.17,11.84-1.42.08-2.86.12-4.33.12-12.4,0-26.24-3-34.83-12.44-3.18-3.85-4.88-7.21-6.82-14.03,9.65-1.71,19.33-3.36,29.01-4.92,1.76,6.95,6.39,10.06,15.06,10.06.59,0,1.19-.01,1.82-.04,8.81-.4,13.71-3.04,13.54-7.51-.08-2.17-1.34-4-3.45-5.07-2.11-1.07-4.07-1.59-12.27-2.79-11.33-1.66-17.32-2.7-22.19-4.07-7.17-2.03-12.48-5.22-15.47-9.35-2.65-3.65-4.27-8.58-4.61-13.46-1.5-21.2,21.87-29.28,38.89-30.09,1.37-.07,2.77-.1,4.18-.1m0-10c-1.51,0-3.08.04-4.65.11-5.02.24-12.7,1.13-20.83,4.01-8.16,2.89-14.69,7.05-19.41,12.36-5.99,6.74-8.8,15.18-8.15,24.41.49,6.91,2.79,13.52,6.49,18.62,1.86,2.56,4.2,4.84,7.01,6.81-2.24.39-4.48.78-6.7,1.18-2.78.49-5.23,2.14-6.73,4.54-1.5,2.4-1.92,5.32-1.14,8.04,2.27,8.01,4.56,12.63,8.73,17.68.1.12.2.24.31.36,9.22,10.13,24.21,15.71,42.22,15.71,1.61,0,3.26-.05,4.88-.14,18.34-1.02,31.63-5.82,40.63-14.7.04-.03.07-.07.1-.1,6.47-6.57,9.97-16,9.84-26.55-.14-11.58-5.85-21.75-15.26-27.8.91-.12,1.82-.24,2.73-.36,2.95-.39,5.57-2.07,7.16-4.59s1.97-5.61,1.04-8.44c-2.78-8.5-6.03-14.97-13.61-20.93-8.64-6.78-20.3-10.22-34.66-10.22h0Z"/><path class="cls-2" d="m568.35,281.72c-11.12,0-18.85-1.88-24.35-5.9-6.96-5.1-9.74-11.49-9.9-22.79l-.56-39.2c-.22,0-.45,0-.7.01-4.34.07-8.03.39-12.36,1.07-.26.04-.51.06-.77.06-1.16,0-2.3-.41-3.21-1.16-1.1-.92-1.76-2.28-1.79-3.72l-.56-24.12c-.03-1.44.56-2.82,1.62-3.8.93-.85,2.14-1.32,3.38-1.32.18,0,.36,0,.54.03,3.88.42,6.98.59,10.7.59.71,0,1.44,0,2.21-.02.16,0,.32,0,.47,0-.15-6.46-.58-11.54-1.42-17.14-.22-1.43.2-2.88,1.13-3.98.93-1.1,2.29-1.75,3.74-1.77,10.41-.16,20.96-.25,31.37-.25,1.44,0,2.8.62,3.75,1.7.95,1.08,1.39,2.51,1.2,3.94-.68,5.29-1.08,11.32-1.15,17.19h1.04c6.45,0,9.53-.14,13.74-.62.19-.02.38-.03.57-.03,1.23,0,2.42.45,3.34,1.28,1.06.96,1.67,2.33,1.66,3.76l-.19,23.98c-.01,1.44-.64,2.8-1.73,3.74-.91.79-2.08,1.22-3.27,1.22-.22,0-.45-.01-.67-.05-4.63-.63-8.31-.88-13.15-.89h-1.3s.04,31.98.04,31.98c0,2.57.37,3.17.39,3.2.55.34,1.95.77,4.05.77h0c3.03,0,5.05-.51,8.06-2.02.7-.35,1.47-.53,2.24-.53.84,0,1.68.21,2.43.63,1.44.8,2.4,2.27,2.55,3.91.81,8.79,1.22,13.19,2.01,21.99.21,2.37-1.27,4.56-3.55,5.24-7.16,2.14-13.4,3.01-21.54,3.01h-.06Z"/><path class="cls-1" d="m567.88,163.31c-.76,5.92-1.21,12.86-1.2,19.79,0,1.21,0,1.82,0,3.03,1.16,0,2.02,0,2.89,0,.77,0,1.55,0,2.58,0,.19,0,.38,0,.57,0,6.32,0,9.74-.13,14.32-.66-.08,9.59-.11,14.39-.19,23.98-4.5-.61-8.41-.92-13.82-.93-1.33,0-2.3,0-3.3,0-.9,0-1.81,0-3.01,0,.02,12.33.03,24.66.05,36.98,0,4.05.76,6.13,2.66,7.37,1.57,1.02,3.97,1.59,6.77,1.6.03,0,.06,0,.09,0,3.78,0,6.56-.71,10.22-2.54.81,8.79,1.22,13.19,2.01,21.98-6.58,1.96-12.25,2.8-20.11,2.81h-.06c-9.87,0-16.73-1.52-21.39-4.93-5.58-4.09-7.72-9.01-7.86-18.83-.21-14.73-.42-29.47-.64-44.2-2.28.03-3.43.05-5.71.09-4.81.08-8.71.45-13.05,1.13-.22-9.65-.33-14.47-.56-24.12,3.75.4,7.06.62,11.22.62.74,0,1.51,0,2.31-.02,2.19-.04,3.28-.05,5.47-.09-.02-1.21-.03-1.82-.04-3.03-.1-7.22-.49-13-1.51-19.77,10.43-.16,20.86-.25,31.29-.25m19.15,22.17h0m-19.16-32.17h0c-10.44,0-21.02.08-31.45.25-2.88.05-5.61,1.33-7.47,3.54s-2.69,5.1-2.26,7.95c.59,3.88.96,7.41,1.17,11.39-2.51-.06-4.87-.23-7.66-.53-.36-.04-.72-.06-1.07-.06-2.49,0-4.91.93-6.77,2.64-2.12,1.95-3.3,4.71-3.23,7.59l.56,24.12c.07,2.88,1.37,5.59,3.58,7.44,1.81,1.51,4.09,2.33,6.41,2.33.51,0,1.03-.04,1.54-.12,2.63-.41,4.96-.68,7.37-.84l.49,34.09c.14,9.45,1.68,19.23,11.95,26.75,6.4,4.69,15.07,6.87,27.3,6.87h.06c8.67,0,15.32-.94,22.97-3.22,4.56-1.36,7.53-5.75,7.1-10.48-.8-8.8-1.2-13.2-2.01-22-.3-3.29-2.21-6.21-5.1-7.82-1.51-.84-3.18-1.26-4.86-1.26-1.53,0-3.06.35-4.47,1.06-2.35,1.17-3.58,1.45-5.27,1.48l-.02-11.31-.02-14.57c2.95.11,5.63.35,8.77.78.45.06.9.09,1.35.09,2.39,0,4.72-.86,6.55-2.44,2.17-1.88,3.43-4.61,3.45-7.48l.1-11.99.09-11.76c0-.1,0-.2,0-.31,0-5.48-4.41-9.94-9.88-10-.04,0-.08,0-.12,0-.08,0-.16,0-.24,0,0,0,0,0,0,0,0,0,0,0,0,0-.35,0-.69.03-1.03.08-2.93.33-5.33.49-8.92.55.18-4,.51-7.94.97-11.52.37-2.85-.51-5.72-2.41-7.88-1.9-2.16-4.63-3.4-7.51-3.4h0Zm0,20h0,0Z"/><path class="cls-2" d="m628,280.08c-10.09-.29-20.31-.5-30.37-.62-1.43-.02-2.79-.65-3.73-1.74-.94-1.09-1.36-2.52-1.17-3.94.94-6.85,1.3-12.2,1.42-21.19l.62-44.49c.13-9.47-.1-15-.87-21.13-.18-1.43.27-2.88,1.23-3.96.95-1.06,2.31-1.67,3.73-1.67h.06c10.54.13,21.24.35,31.81.65,1.46.04,2.82.72,3.74,1.85s1.3,2.61,1.03,4.04c-1,5.51-1.46,11.01-1.73,21.01l-1.21,44.48c-.2,7.33,0,15.07.55,21.26.13,1.42-.36,2.83-1.34,3.87-.95,1-2.26,1.57-3.64,1.57-.05,0-.1,0-.14,0Zm2.28-98.5c-10.26-.29-20.65-.51-30.88-.64-1.33-.02-2.59-.56-3.52-1.51-.93-.95-1.44-2.23-1.42-3.56l.29-21.67c.04-2.74,2.27-4.93,5-4.93h.07c10.45.13,20.99.35,31.35.65,2.76.08,4.93,2.38,4.86,5.14l-.6,21.66c-.04,1.33-.6,2.58-1.56,3.5-.93.88-2.16,1.37-3.44,1.37-.05,0-.09,0-.14,0Z"/><path class="cls-1" d="m599.76,154.27c10.42.13,20.85.35,31.27.64-.24,8.67-.36,13-.6,21.66-10.32-.29-20.64-.51-30.96-.64.12-8.67.18-13,.29-21.67m-.89,32.06c10.58.13,21.15.35,31.73.65-1.07,5.9-1.53,11.66-1.81,21.77-.4,14.83-.81,29.65-1.21,44.48-.21,7.8.02,15.61.57,21.84-10.15-.29-20.3-.5-30.45-.63.97-7.07,1.34-12.55,1.47-21.8.21-14.83.41-29.66.62-44.49.13-9.39-.09-15.32-.91-21.83m.89-42.06c-5.46,0-9.92,4.39-10,9.86l-.21,15.29-.09,6.38c-.02,1.7.39,3.37,1.18,4.84-1.39,2.01-2.01,4.48-1.69,6.94.74,5.87.96,11.22.83,20.43l-.62,44.49c-.12,8.87-.46,13.87-1.38,20.58-.39,2.84.46,5.71,2.33,7.88,1.87,2.17,4.58,3.44,7.45,3.47,10.05.13,20.24.34,30.29.62.1,0,.19,0,.29,0,2.75,0,5.39-1.14,7.28-3.15,1.96-2.08,2.93-4.9,2.68-7.74-.53-6-.73-13.54-.53-20.68l.6-22.14.61-22.34c.27-9.72.7-15.02,1.65-20.25.45-2.48-.05-5.03-1.38-7.14.85-1.44,1.33-3.09,1.38-4.79l.3-10.83.3-10.83c.15-5.52-4.2-10.12-9.71-10.27-10.43-.3-21-.51-31.42-.65-.04,0-.09,0-.13,0h0Z"/><path class="cls-2" d="m703.28,283.51c-.11,0-.22,0-.32-.01-10.55-.68-21.25-1.28-31.79-1.78-2.38-.11-4.35-1.89-4.71-4.24-.49-3.22-.99-5.21-3.15-11.42-7.24-20.87-14.77-41.99-22.39-62.78-.85-2.09-2.78-6.75-5.84-14.1-.65-1.57-.46-3.37.51-4.77.94-1.35,2.47-2.15,4.11-2.15.06,0,.12,0,.17,0,11.21.39,22.56.84,33.74,1.34,2.6.12,4.67,2.2,4.77,4.79.11,2.87.59,5.46,2.13,11.52,3.26,12.56,6.26,24.32,9.09,35.67,4.52-12.11,8.83-23.46,13.06-34.47,1.87-4.91,2.95-8.48,3.4-11.22.39-2.44,2.5-4.2,4.93-4.2.11,0,.23,0,.34.01,11.25.76,22.59,1.58,33.69,2.44,1.71.13,3.23,1.13,4.03,2.64s.78,3.33-.07,4.82c-3.61,6.34-4.96,8.88-7.17,13.26-9.9,19.79-19.76,39.97-29.3,59.94-2.84,5.93-3.56,7.85-4.4,11-.59,2.2-2.58,3.7-4.83,3.7Z"/><path class="cls-1" d="m639.7,187.26c11.23.39,22.46.83,33.69,1.34.14,3.48.76,6.54,2.28,12.55,3.94,15.17,7.8,30.37,11.55,45.59.13.3.25.88.5,1.62.36,1.47.36,1.61.95,4.1.51-1.27.67-2.07.88-2.56.12-.26.29-.79.52-1.42.24-.66.52-1.27.69-1.7,5.44-14.66,10.95-29.28,16.56-43.87,2-5.23,3.16-9.06,3.67-12.22,11.22.76,22.43,1.57,33.64,2.43-3.55,6.24-4.97,8.88-7.29,13.48-9.96,19.93-19.74,39.94-29.35,60.04-2.89,6.04-3.77,8.3-4.72,11.86-10.62-.68-21.25-1.28-31.88-1.79-.55-3.64-1.17-5.99-3.37-12.31-7.3-21.05-14.78-42.03-22.44-62.94-.83-2.05-2.78-6.75-5.89-14.22m0-10c-3.27,0-6.35,1.6-8.22,4.31-1.94,2.8-2.32,6.39-1.01,9.53,3.17,7.64,4.97,11.96,5.79,13.99,7.6,20.73,15.11,41.8,22.32,62.61,2.15,6.19,2.51,7.8,2.93,10.53.71,4.71,4.65,8.26,9.41,8.49,10.52.5,21.19,1.1,31.71,1.78.22.01.43.02.65.02,4.49,0,8.47-3.01,9.65-7.4.72-2.67,1.25-4.23,4.08-10.13,9.53-19.94,19.38-40.09,29.28-59.89,2.16-4.27,3.48-6.76,7.04-13.01,1.69-2.98,1.75-6.61.14-9.63s-4.65-5.02-8.06-5.28c-11.19-.87-22.54-1.69-33.74-2.44-.23-.02-.45-.02-.68-.02-4.87,0-9.08,3.53-9.86,8.41-.39,2.39-1.38,5.65-3.14,10.24-2.45,6.36-4.92,12.84-7.44,19.51-1.66-6.53-3.39-13.25-5.19-20.21-1.43-5.65-1.87-8-1.97-10.46-.21-5.19-4.36-9.36-9.55-9.59-11.2-.5-22.57-.95-33.79-1.34-.12,0-.23,0-.35,0h0Z"/><path class="cls-2" d="m832.52,295.76c-.21,0-.42-.01-.63-.04-9.3-1.18-18.73-2.3-28.05-3.34-1.32-.15-2.52-.81-3.35-1.85-.38-.48-.67-1.01-.85-1.58-5.34,1.84-11.55,2.86-17.82,2.87-2.24,0-4.41-.14-6.43-.4-12.66-1.67-21.63-5.53-27.44-11.8-5.74-6.21-8.48-14.75-7.71-24.07.9-10.81,6.14-19.13,15.17-24.07,4.03-2.21,8.49-3.88,13.43-5.04-6.04-1.53-12.1-3.03-18.11-4.49-1.45-.35-2.66-1.33-3.31-2.66-.65-1.34-.68-2.89-.07-4.25,4.21-9.33,8.78-14.56,16.33-18.65,7.33-3.97,16.5-5.99,27.28-5.99,3.26,0,6.77.18,10.41.55,5.51.55,19.41,2.51,29.56,8.92,10.32,6.68,15.13,18.79,12.92,32.44l-4.84,38.61c-1.03,8.23-1.41,13.26-1.5,19.93-.02,1.42-.64,2.77-1.72,3.71-.92.79-2.08,1.23-3.28,1.23Zm-38.85-42.54c-3.78,0-6.8.28-9.79.91-3.17.67-5.34,2.33-5.53,4.24-.27,2.8,4.11,3.66,6.75,3.93.73.08,1.5.11,2.28.11,4.31,0,8.85-1.18,11.56-3,2.19-1.47,3.61-3.45,4.15-5.78-3.8-.28-6.81-.41-9.42-.41Zm-5.8-28.79c.62,0,1.24,0,1.86.02,5.18.08,9.36.29,16.48.86-.09-1.15-.46-1.62-.61-1.81-.61-.76-2.48-2.13-8.1-2.73-1.18-.12-2.29-.19-3.29-.19-4.93,0-7.22,1.45-8.69,3.88.77-.02,1.56-.03,2.35-.03Z"/><path class="cls-1" d="m790.97,195.38c3.36,0,6.7.2,9.92.52,8.65.86,19.75,3.35,27.39,8.17,9.34,6.04,12.37,16.92,10.64,27.5-1.62,12.9-3.24,25.8-4.86,38.7-1.1,8.74-1.45,13.94-1.54,20.48-9.36-1.19-18.74-2.3-28.12-3.35.3-2.64.45-3.96.74-6.6-6.21,4.14-15.37,6.01-23.31,6.01-2.03,0-3.98-.12-5.78-.36-10.62-1.4-19.05-4.44-24.42-10.24-4.81-5.2-7.05-12.34-6.4-20.26.75-9.07,5.05-15.97,12.58-20.1,9.11-4.98,19.85-6.42,30.05-6.42.6,0,1.19,0,1.78.01,5.8.09,10.36.33,21.12,1.25.15-1.32.22-1.98.37-3.3.77-6.89-3.22-10.56-13.12-11.6-1.35-.14-2.62-.22-3.82-.22-7.26,0-11.6,2.69-14.12,8.56-9.37-2.42-18.76-4.78-28.17-7.06,3.71-8.24,7.46-12.68,14.15-16.31,7.48-4.06,16.28-5.38,24.9-5.38m-3.59,72.03c5.24,0,10.71-1.41,14.35-3.85,3.68-2.47,6.04-6.16,6.52-10.47.18-1.61.27-2.41.45-4.02-6.31-.57-11.09-.85-15.03-.85-4.29,0-7.6.34-10.82,1.01-5.46,1.15-9.08,4.48-9.48,8.65-.5,5.18,3.61,8.61,11.22,9.39.91.09,1.85.14,2.79.14m3.59-82.03c-11.62,0-21.59,2.22-29.66,6.59-8.5,4.61-13.86,10.69-18.5,20.99-1.22,2.71-1.17,5.83.13,8.5s3.73,4.62,6.62,5.33c.92.22,1.84.45,2.77.67-10.01,5.76-16.06,15.55-17.06,27.66-.89,10.73,2.32,20.63,9.02,27.87,6.63,7.17,16.59,11.54,30.45,13.37,2.24.3,4.62.44,7.09.44,3.14,0,9.22-.27,15.83-2.02,1.55,1.42,3.52,2.32,5.63,2.55,9.29,1.04,18.7,2.16,27.97,3.33.42.05.84.08,1.26.08,2.4,0,4.73-.86,6.56-2.45,2.15-1.87,3.4-4.56,3.44-7.41.09-6.46.46-11.35,1.46-19.37l4.83-38.53c2.5-15.64-3.14-29.58-15.11-37.32-.03-.02-.06-.04-.1-.06-11.05-6.97-25.88-9.08-31.73-9.66-3.81-.38-7.48-.57-10.91-.57h0Z"/><path class="cls-2" d="m878.1,302.01c-.25,0-.49-.02-.74-.05-9.98-1.49-20.13-2.92-30.15-4.25-1.43-.19-2.71-.99-3.51-2.19-.8-1.2-1.04-2.69-.66-4.08,1.73-6.32,2.61-10.99,3.92-20.81l10.17-75.89c1.37-10.19,1.81-15.87,1.63-20.95-.05-1.47.55-2.89,1.64-3.88.92-.84,2.12-1.29,3.35-1.29.22,0,.45.01.67.05,10.61,1.44,21.38,2.96,32.01,4.51,1.44.21,2.73,1.04,3.51,2.28s.98,2.75.55,4.14c-1.69,5.49-2.8,10.89-4.24,20.66l-11.19,75.75c-1.23,8.34-1.73,13.68-1.98,21.19-.05,1.42-.7,2.76-1.8,3.67-.9.75-2.04,1.16-3.2,1.16Z"/><path class="cls-1" d="m863.77,173.61c10.66,1.45,21.31,2.95,31.96,4.5-1.81,5.87-2.97,11.68-4.41,21.4l-11.19,75.75c-1.27,8.57-1.78,14.05-2.03,21.75-10.06-1.5-20.14-2.92-30.23-4.26,1.73-6.33,2.67-11.16,4.06-21.47,3.39-25.3,6.78-50.59,10.17-75.89,1.36-10.17,1.87-16.22,1.67-21.79m0-10c-2.46,0-4.86.91-6.71,2.58-2.19,1.98-3.39,4.82-3.29,7.76.17,4.78-.27,10.23-1.59,20.11l-9.57,71.41-.6,4.48c-1.28,9.57-2.13,14.09-3.79,20.16-.76,2.78-.28,5.76,1.32,8.17,1.6,2.4,4.15,4,7.02,4.38,9.99,1.32,20.1,2.75,30.07,4.24.49.07.98.11,1.47.11,2.32,0,4.59-.81,6.4-2.32,2.19-1.83,3.5-4.5,3.59-7.35.25-7.39.71-12.4,1.93-20.62l11.19-75.75c1.4-9.49,2.47-14.7,4.07-19.92.86-2.79.46-5.82-1.1-8.29s-4.12-4.13-7.01-4.55c-10.63-1.55-21.41-3.07-32.05-4.51-.45-.06-.9-.09-1.35-.09h0Z"/></g></svg>