<?xml version="1.0" encoding="UTF-8"?><svg id="Layer_2" xmlns="http://www.w3.org/2000/svg" viewBox="0 0 414.89 25.92"><defs><style>.cls-1{stroke-width:0px;}</style></defs><g id="OBJECTS"><path fill="#A3E635" class="cls-1" d="m68.38,25.92h339.51c-.22-1.57,7.42-4.18,6.98-5.55-6.62,1.05-5.59-6.16-5.75-6.6-.32-.87-3.39,4.69-3.76,3.88-1.99-4.38-4.41-7.94-4.9-11.94-1.54,3.83-1.41,7.78-.68,11.34-.46-.24-.91-.47-1.36-.69-.15-.44-.3-.88-.45-1.3.08-.25.18-.5.28-.75-.16.08-.3.16-.46.23-.84-2.39-1.58-4.56-1.71-6.04-1.17,1.6-1.74,3.53-1.95,5.52-.84-.59-1.6-1.26-2.21-2.11.15,2.09.68,3.87,1.41,5.43-.33.27-.63.53-.92.8-.73.1-1.43.29-2.1.54.54-2.85.13-6.43-1.71-10.65-.88,4.46-3.09,8.32-6.1,11.9,0-.11.01-.22.01-.33.29-1.8.52-3.45,1.21-5.12-.47.22-.9.44-1.33.67-.26-3.53-.68-6.74.38-9.64-2.19,2.22-3.85,4.46-5.12,6.63-.44-3.68-1.37-7.37-3.06-10.21.01,3.92-.33,7.32-.91,10.39-.31-1.39-.8-2.87-1.48-4.44-.42,2.13-1.15,4.12-2.12,6.01-.89-3.03-2.16-6-3.99-8.24.53,3,.64,7.32.94,11.86-.99-3.13-1.96-5.95-2.57-8.6-.72,1.58-1.3,3.15-1.77,4.68-1.27-2.43-3.01-4.74-5.39-6.52.78,3,.81,7.39,1.2,11.95-.55-1.25-1.05-2.42-1.36-3.56-.43.54-.82,1.08-1.18,1.61-.25-1.47-.71-3.06-1.46-4.78-.45,2.25-1.28,4.33-2.4,6.29.33-3.99.47-8.03,1.15-9.67-4.69,2.17-6.75,8.15-7.64,12.6-.38-3.29-.89-6.17-.99-8.81-1.34,1.84-2.43,3.69-3.23,5.43.42-4.59.45-9,1.28-12.01-2.94,2.08-4.95,4.88-6.33,7.76-1.54,1.09-3,2.48-4.29,3.94.87-4.98,1.24-9.19,2.42-13.38-2.23,1.72-4,3.73-5.42,5.81.13-2.16.28-4.11.53-5.69-2.3,3.34-3.57,8.3-4.27,12.59-.49-.74-1.06-1.51-1.7-2.28-.33,1.13-.86,2.31-1.44,3.56.41-4.56.45-8.95,1.27-11.95-2.52,1.78-4.35,4.09-5.7,6.52-.49-1.53-1.11-3.1-1.87-4.68-.64,2.65-1.67,5.47-2.72,8.6.32-4.53.44-8.85,1-11.86-1.99,2.29-3.35,5.35-4.29,8.45.16-4.06.71-8.48,1.92-13.53-2.76,3.03-4.81,7.74-6.22,12.37-1.41-2.48-3.33-5.09-6.02-7.67,1.32,3.43.47,7.27.28,11.59-1.21-.83-2.63-1.64-4.33-2.39.78,1.79,1.01,3.54,1.34,5.5-3.21-3.59-5.57-7.47-6.51-11.96-1.94,4.21-2.38,7.8-1.81,10.65-.71-.25-1.45-.44-2.22-.54-.3-.27-.63-.54-.97-.8.78-1.56,1.34-3.34,1.5-5.43-.66.84-1.45,1.52-2.34,2.11-.22-1.99-.82-3.92-2.06-5.52-.14,1.48-.93,3.65-1.81,6.04-.17-.08-.31-.16-.49-.23.11.25.21.5.3.75-.16.43-.32.87-.48,1.3-.47.22-.95.45-1.43.69.78-3.56.91-7.51-.72-11.34-.52,4.01-3.1,7.58-5.22,11.98.53-4.36.44-9.06-1.45-12.39-.32,2.55-1.76,6.69-3.15,11.04-.33-5.8-.93-10.64-.75-15.74-2.09,3.21-3.48,6.62-4.41,9.95-1.26-1.47-2.76-2.7-4.58-3.5.91,2.07,1.07,7.27,1.52,12.31-.56.54-1.08,1.08-1.56,1.61-.13-6.07-.88-10.78-.61-15.8-3.44,4.53-5.02,9.53-5.69,13.88-.48-.72-1.03-1.45-1.65-2.2-.33,1.13-.86,2.31-1.44,3.56.41-4.56.45-8.95,1.27-11.95-2.52,1.78-4.35,4.09-5.7,6.52-.49-1.53-1.11-3.1-1.87-4.68-.86,3.55-2.4,7.4-3.78,11.91-.71.22-1.39.52-2.03.86.39-2.25.56-4.23,1.4-6.24-2.99,1.39-5.09,2.99-6.58,4.57.44-1.6.83-3.05,1.52-4.62-1.77,1.48-3.16,2.95-4.27,4.34.38-4.71,1.23-9.9,1.86-15.27-3.05,2.8-4.81,7.45-5.76,11.93-.89-3.54-2.26-7.16-4.41-9.78.53,3,.64,7.32.94,11.86-.99-3.13-1.96-5.95-2.57-8.6-.72,1.58-1.3,3.15-1.77,4.68-1.27-2.43-3.01-4.74-5.39-6.52.78,3,.81,7.39,1.2,11.95-.55-1.25-1.05-2.42-1.36-3.56-.59.75-1.09,1.49-1.55,2.22-.63-4.36-2.13-9.37-5.38-13.9.26,5.02-.45,9.73-.57,15.8-.44-.53-.94-1.07-1.47-1.61.42-5.04.58-10.24,1.43-12.31-1.72.8-3.14,2.03-4.33,3.5-.88-3.33-2.19-6.74-4.17-9.95.16,5.11-.4,9.95-.71,15.74-1.31-4.36-2.68-8.49-2.98-11.04-1.79,3.34-1.87,8.03-1.37,12.39-2-4.4-4.44-7.97-4.93-11.98-1.54,3.83-1.41,7.78-.68,11.34-.46-.24-.91-.47-1.36-.69-.15-.44-.3-.88-.45-1.3.08-.25.18-.5.28-.75-.16.08-.3.16-.46.23-.84-2.39-1.58-4.56-1.71-6.04-1.17,1.6-1.74,3.53-1.95,5.52-.84-.59-1.6-1.26-2.21-2.11.15,2.09.68,3.87,1.41,5.43-.33.27-.63.53-.92.8-.73.1-1.43.29-2.1.54.54-2.85.13-6.43-1.71-10.65-.88,4.46-3.09,8.32-6.1,11.9,0-.11.01-.22.01-.33.28-1.8.52-3.45,1.21-5.12-.47.22-.9.44-1.33.67-.26-3.53-.68-6.74.38-9.64-2.19,2.22-3.85,4.46-5.12,6.63-.44-3.68-1.37-7.37-3.06-10.21.01,3.92-.33,7.32-.91,10.39-.31-1.39-.8-2.87-1.48-4.44-.42,2.13-1.15,4.12-2.12,6.01-.89-3.03-2.16-6-3.99-8.24.53,3,.64,7.32.94,11.86-.99-3.13-1.96-5.95-2.57-8.6-.72,1.58-1.3,3.15-1.77,4.68-1.27-2.43-3.01-4.74-5.39-6.52.78,3,.81,7.39,1.2,11.95-.55-1.25-1.05-2.42-1.36-3.56-.43.54-.82,1.08-1.18,1.61-.25-1.47-.71-3.06-1.46-4.78-.45,2.25-1.28,4.33-2.4,6.29.33-3.99.47-8.03,1.15-9.67-4.69,2.17-6.75,8.15-7.64,12.6-.38-3.29-.89-6.17-.99-8.81-1.34,1.84-2.43,3.69-3.23,5.43.42-4.59.45-9,1.28-12.01-2.94,2.08-4.95,4.88-6.33,7.76-1.54,1.09-3,2.48-4.29,3.94.87-4.98,1.24-9.19,2.42-13.38-2.23,1.72-4,3.73-5.42,5.81.13-2.16.28-4.11.53-5.69-2.3,3.34-3.57,8.3-4.27,12.59-.49-.74-1.06-1.51-1.7-2.28-.33,1.13-.86,2.31-1.44,3.56.41-4.56.45-8.95,1.27-11.95-2.52,1.78-4.35,4.09-5.7,6.52-.49-1.53-1.11-3.1-1.87-4.68-.64,2.65-1.67,5.47-2.72,8.6.32-4.53.44-8.85,1-11.86-1.99,2.29-3.35,5.35-4.29,8.45.16-4.06.71-8.48,1.92-13.53-2.76,3.03-4.81,7.74-6.22,12.37-1.41-2.48-3.33-5.09-6.02-7.67,1.32,3.43.47,7.27.28,11.59-1.21-.83-2.63-1.64-4.33-2.39.78,1.79,1.01,3.54,1.34,5.5-3.21-3.59-5.57-7.47-6.51-11.96-1.94,4.21-2.38,7.8-1.81,10.65-.71-.25-1.45-.44-2.22-.54-.3-.27-.63-.54-.97-.8.78-1.56,1.34-3.34,1.5-5.43-.66.84-1.45,1.52-2.34,2.11-.22-1.99-.82-3.92-2.06-5.52-.14,1.48-.93,3.65-1.81,6.04-.17-.08-.31-.16-.49-.23.11.25.21.5.3.75-.16.43-.32.87-.48,1.3-.47.22-.95.45-1.43.69.78-3.56.91-7.51-.72-11.34-.52,4.01-3.1,7.58-5.22,11.98.53-4.36.44-9.06-1.45-12.39-.32,2.55-1.76,6.69-3.15,11.04-.33-5.8-.93-10.64-.75-15.74-2.09,3.21-3.48,6.62-4.41,9.95-1.26-1.47-2.76-2.7-4.58-3.5.91,2.07,1.07,7.27,1.52,12.31-.56.54-1.08,1.08-1.56,1.61-.13-6.07-.88-10.78-.61-15.8-3.44,4.53-5.02,9.53-5.69,13.88-.48-.72-1.03-1.45-1.65-2.2-.33,1.13-.86,2.31-1.44,3.56.41-4.56.45-8.95,1.27-11.95-2.52,1.78-4.35,4.09-5.7,6.52-.49-1.53-1.11-3.1-1.87-4.68-.64,2.65-1.67,5.47-2.72,8.6.32-4.53.44-8.85,1-11.86-2.27,2.62-3.73,6.24-4.67,9.78-1-4.48-2.86-9.13-6.09-11.93.67,5.36,1.56,10.56,1.97,15.27-1.17-1.4-2.65-2.87-4.52-4.34.73,1.57,1.14,3.02,1.61,4.62-1.58-1.58-3.8-3.18-6.96-4.57.88,2.01,1.06,3.98,1.48,6.24-2.45-1.25-5.48-1.85-8.7-.52,2.61,1.37,3.68,3.03,4.96,4.55,0,0,63.26-.36,63.42,0Z"/></g></svg>